<svg width="27" height="17" viewBox="0 0 27 17" fill="none" xmlns="http://www.w3.org/2000/svg">
<path d="M2.99842 -0.000488281H0.281727C0.0462569 -0.000488281 -0.0837792 0.270126 0.0603147 0.452881L12.4348 16.2962C12.5395 16.4308 12.6735 16.5397 12.8267 16.6146C12.9799 16.6896 13.1482 16.7285 13.3187 16.7285C13.4892 16.7285 13.6575 16.6896 13.8107 16.6146C13.9639 16.5397 14.0979 16.4308 14.2026 16.2962L26.5771 0.452881C26.7212 0.266613 26.5912 -0.000488281 26.3557 -0.000488281H23.639C23.4668 -0.000488281 23.3016 0.0803432 23.1962 0.213894L13.3205 12.866L3.44125 0.213894C3.33581 0.0803432 3.17063 -0.000488281 2.99842 -0.000488281Z" fill="#707EAE"/>
</svg>
