<svg width="16" height="15" viewBox="0 0 16 15" fill="none" xmlns="http://www.w3.org/2000/svg">
<path d="M13.1147 6.93656H4.3139L9.58146 2.48807C9.66569 2.41637 9.61455 2.2832 9.50325 2.2832H8.17207C8.1134 2.2832 8.05775 2.30369 8.01413 2.34027L2.32992 7.1385C2.27785 7.1824 2.2361 7.23668 2.20749 7.29765C2.17887 7.35862 2.16406 7.42487 2.16406 7.4919C2.16406 7.55892 2.17887 7.62516 2.20749 7.68614C2.2361 7.74711 2.27785 7.80138 2.32992 7.84529L8.04722 12.6728C8.06978 12.6918 8.09686 12.702 8.12544 12.702H9.50174C9.61305 12.702 9.66419 12.5674 9.57996 12.4972L4.3139 8.04869H13.1147C13.1809 8.04869 13.2351 7.99601 13.2351 7.93162V7.05363C13.2351 6.98924 13.1809 6.93656 13.1147 6.93656Z" fill="currentColor"/>
</svg>
