<svg width="48" height="48" viewBox="0 0 48 48" fill="none" xmlns="http://www.w3.org/2000/svg">
<path d="M47.1827 18.0859H45.3891V15.0241C45.3891 14.5724 45.0231 14.206 44.571 14.206H15.4512L4.70079 7.13472C4.32373 6.88664 3.81731 6.99089 3.56847 7.36757L1.43134 10.612C1.31224 10.7931 1.26963 11.0145 1.31339 11.2272C1.35715 11.4395 1.48347 11.626 1.66496 11.7455L11.3026 18.0858H0.818035C0.366024 18.0858 0 18.4523 0 18.9043C0 19.3559 0.366024 19.7223 0.818035 19.7223H13.7893L31.394 31.3026H16.8848L22.1164 27.7767H22.1168C22.4916 27.5245 22.5905 27.0157 22.3379 26.641C22.0852 26.2662 21.5769 26.1673 21.2021 26.4199L13.9566 31.3027H9.382C8.87406 31.3031 8.38741 31.5051 8.02858 31.8639C7.6694 32.2231 7.46775 32.7097 7.46737 33.2173V34.8754C6.49031 35.1421 5.70417 35.8678 5.36062 36.8205C5.01705 37.7732 5.15897 38.8336 5.7411 39.6623C6.32324 40.491 7.27258 40.9841 8.28538 40.9841C9.29819 40.9841 10.2476 40.491 10.8297 39.6623C11.4118 38.8336 11.5537 37.7732 11.2101 36.8205C10.8666 35.8678 10.0805 35.1422 9.1034 34.8754V33.2173C9.10378 33.064 9.22819 32.9396 9.38192 32.9392H38.6186C38.7723 32.9396 38.8967 33.064 38.8971 33.2173V34.8754C37.9201 35.1421 37.1339 35.8678 36.7904 36.8205C36.4468 37.7732 36.5887 38.8336 37.1709 39.6623C37.753 40.491 38.7023 40.9841 39.7151 40.9841C40.7279 40.9841 41.6773 40.491 42.2594 39.6623C42.8416 38.8336 42.9835 37.7732 42.6399 36.8205C42.2963 35.8677 41.5102 35.1422 40.5332 34.8754V33.2173C40.5328 32.7097 40.3307 32.2231 39.9719 31.8643C39.6132 31.5051 39.1265 31.3034 38.6185 31.3027H34.3723L25.5276 25.4832L34.0656 19.7226H47.182C47.634 19.7226 48 19.3562 48 18.9046C48 18.4526 47.634 18.0862 47.182 18.0862L47.1827 18.0859ZM9.7553 37.8695C9.7553 38.2599 9.60045 38.6343 9.32459 38.9106C9.04836 39.1864 8.67435 39.342 8.28393 39.3424C7.89356 39.3424 7.51878 39.188 7.24259 38.9121C6.96598 38.6366 6.81036 38.2622 6.80998 37.8718C6.80922 37.4814 6.96369 37.107 7.23878 36.8305C7.51425 36.5539 7.88827 36.3979 8.27866 36.3967H8.29122C8.68045 36.399 9.05295 36.5554 9.3273 36.8312C9.60125 37.1071 9.75534 37.4803 9.75534 37.8696L9.7553 37.8695ZM41.1885 37.8695C41.1885 38.2599 41.0332 38.6343 40.7574 38.9102C40.4815 39.1864 40.1075 39.342 39.7171 39.3424C39.3267 39.3428 38.9523 39.1879 38.6757 38.9125C38.3995 38.637 38.2435 38.2626 38.2428 37.8722C38.242 37.4822 38.3965 37.1074 38.6716 36.8309C38.947 36.5539 39.321 36.3979 39.7114 36.3967H39.7217C40.1113 36.3982 40.4842 36.5542 40.7593 36.8301C41.034 37.1063 41.1884 37.48 41.1884 37.8696L41.1885 37.8695ZM3.24873 10.8283L4.48528 8.95251L14.7565 15.7076H14.7561C14.8897 15.7955 15.046 15.8423 15.2058 15.8423H43.7529V18.0856H14.2805L3.24873 10.8283ZM24.0444 24.5087L16.7681 19.7221H31.14L24.0444 24.5087Z" fill="currentColor"/>
</svg>
