<svg width="48" height="48" viewBox="0 0 48 48" fill="none" xmlns="http://www.w3.org/2000/svg">
<path d="M44.0926 13.6611C42.9236 13.6368 41.7601 14.0889 40.9272 14.922L31.7547 24.0959C31.571 23.4286 31.2169 22.8162 30.7147 22.3121C29.9442 21.5393 28.9187 21.1144 27.8268 21.1144H27.8243L18.7502 21.1148C16.6086 21.1148 14.595 21.9491 13.0808 23.4628L8.25598 28.2886L7.4704 27.5028C7.07992 27.1123 6.44709 27.1123 6.05621 27.5028L0.29304 33.2667C0.0862845 33.4727 -0.0196052 33.7598 0.00300219 34.0512C0.0256031 34.3421 0.173768 34.6088 0.409817 34.7808L12.7421 43.807C12.9187 43.9368 13.1259 44.0004 13.3318 44.0004C13.5896 44.0004 13.8462 43.9008 14.0391 43.7074L18.1479 39.5971C18.5384 39.2065 18.5384 38.5736 18.1479 38.1826L17.0648 37.0993L18.633 35.5307L29.5746 35.5357C31.0412 35.5357 32.4193 34.9643 33.4552 33.9278L46.8043 20.5761H46.8047C47.5681 19.8113 47.9929 18.7916 48 17.6956C48 16.678 47.6271 15.7068 46.9545 14.9667C46.228 14.155 45.2113 13.6919 44.0922 13.6605L44.0926 13.6611ZM13.2308 41.6869L2.53154 33.8563L6.76244 29.625L12.6097 35.473L14.9434 37.8072C14.9438 37.8076 14.9443 37.8076 14.9447 37.808L16.027 38.8906L13.2308 41.6869ZM45.3901 19.1629L32.04 32.5146C31.3816 33.1739 30.5065 33.5365 29.5748 33.5365L18.2197 33.5315H18.2193C17.9543 33.5315 17.6999 33.6369 17.5123 33.8245L15.6511 35.686L13.8611 33.8961L9.67037 29.7037L14.4947 24.8783C15.6314 23.7422 17.1428 23.1164 18.7504 23.1164H27.825H27.8262C28.3829 23.1164 28.9056 23.3333 29.2986 23.7268C29.6882 24.1173 29.9021 24.6373 29.9 25.2007C29.9029 25.5189 29.8121 25.8236 29.6711 26.1066C29.4748 26.2029 29.2647 26.2782 29.0219 26.3121C28.9345 26.326 28.8466 26.3327 28.6595 26.3377L21.1531 27.0841C20.604 27.1389 20.2022 27.6291 20.257 28.1779C20.3081 28.6945 20.7433 29.0796 21.251 29.0796C21.2837 29.0796 21.3176 29.0775 21.351 29.0746L28.7582 28.3332C28.9478 28.3332 29.1383 28.3186 29.312 28.2913C29.8548 28.216 30.352 28.0289 30.8065 27.7622C30.8241 27.7551 30.8396 27.7451 30.8567 27.7371C30.8931 27.7149 30.9346 27.7032 30.9702 27.6802C30.9986 27.6617 31.0137 27.6329 31.0392 27.6124C31.0689 27.5889 31.1041 27.5768 31.1313 27.5496L42.3407 16.338C42.7864 15.8917 43.3933 15.6288 44.0374 15.6631C44.602 15.6786 45.1089 15.9055 45.4692 16.3086C45.812 16.6841 46.0003 17.1773 46.0003 17.6901C45.9965 18.2498 45.7797 18.7734 45.3901 19.1632L45.3901 19.1629Z" fill="currentColor"/>
<path d="M26.4787 18.9696H30.9566C31.509 18.9696 31.9564 18.5221 31.9564 17.9696V14.2247H35.701C36.2535 14.2247 36.7009 13.7772 36.7009 13.2246V8.74501C36.7009 8.19202 36.253 7.74495 35.701 7.74495H31.9564V4.00006C31.9564 3.44707 31.5086 3 30.9566 3H26.4787C25.9262 3 25.4788 3.4475 25.4788 4.00006V7.74495H21.7342C21.1818 7.74495 20.7344 8.19245 20.7344 8.74501V13.2246C20.7344 13.7776 21.1822 14.2247 21.7342 14.2247H25.4788V17.9696C25.4784 18.5221 25.9262 18.9696 26.4787 18.9696ZM22.7337 12.2241V9.74508H26.4783C27.0307 9.74508 27.4781 9.29758 27.4781 8.74501V5.00013H29.9563V8.74501C29.9563 9.29801 30.4041 9.74508 30.9561 9.74508H34.7007V12.2241H30.9561C30.4037 12.2241 29.9563 12.6716 29.9563 13.2242V16.9691H27.4781V13.2242C27.4781 12.6712 27.0303 12.2241 26.4783 12.2241H22.7337Z" fill="currentColor"/>
</svg>
