<svg width="17" height="17" viewBox="0 0 17 17" fill="none" xmlns="http://www.w3.org/2000/svg">
<path d="M8.89045 8.07473L13.0302 3.14019C13.0996 3.05818 13.0412 2.93359 12.934 2.93359H11.6755C11.6014 2.93359 11.5304 2.96671 11.4815 3.02348L8.06724 7.09381L4.65296 3.02348C4.60565 2.96671 4.53468 2.93359 4.45898 2.93359H3.20051C3.09327 2.93359 3.03492 3.05818 3.10431 3.14019L7.24403 8.07473L3.10431 13.0093C3.08876 13.0275 3.07879 13.0499 3.07558 13.0737C3.07236 13.0975 3.07603 13.1217 3.08616 13.1434C3.09629 13.1652 3.11245 13.1836 3.13272 13.1964C3.15299 13.2092 3.17651 13.216 3.20051 13.2159H4.45898C4.5331 13.2159 4.60407 13.1827 4.65296 13.126L8.06724 9.05564L11.4815 13.126C11.5288 13.1827 11.5998 13.2159 11.6755 13.2159H12.934C13.0412 13.2159 13.0996 13.0913 13.0302 13.0093L8.89045 8.07473Z" fill="#3B4360"/>
</svg>
