<svg width="48" height="48" viewBox="0 0 48 48" fill="none" xmlns="http://www.w3.org/2000/svg">
<path d="M44.1728 8.30415H40.5207V5.38249C40.5207 4.97848 40.1934 4.65207 39.7903 4.65207H36.1382V1.73041C36.1382 1.32641 35.8109 1 35.4078 1H9.84332C9.64963 1 9.46344 1.07663 9.32681 1.21391L4.21391 6.32681C4.07663 6.46344 4 6.64898 4 6.84332V38.2512C4 38.6552 4.32738 38.9816 4.73041 38.9816H8.38249V41.9032C8.38249 42.3072 8.70987 42.6336 9.1129 42.6336H12.765V45.5553C12.765 45.9593 13.0924 46.2857 13.4954 46.2857H44.1728C44.5758 46.2857 44.9032 45.9593 44.9032 45.5553V9.03456C44.9032 8.63056 44.5758 8.30415 44.1728 8.30415ZM5.46083 37.5207V7.57373H9.84332C10.2463 7.57373 10.5737 7.24732 10.5737 6.84332V4.65207H9.1129V6.1129H6.49351L10.1456 2.46083H34.6775V4.65207H14.2259C14.0322 4.65207 13.846 4.7287 13.7094 4.86598L8.59648 9.97888C8.4592 10.1155 8.38257 10.3011 8.38257 10.4954V37.5207H5.46083ZM9.84332 41.1728V11.2258H14.2258C14.6288 11.2258 14.9562 10.8994 14.9562 10.4954V8.30415H13.4954V9.76498H10.876L14.5281 6.1129H39.06V8.30415H18.6084C18.4147 8.30415 18.2285 8.38078 18.0919 8.51805L12.979 13.631C12.8417 13.7676 12.7651 13.9531 12.7651 14.1475V41.1728H9.84332ZM43.4424 44.8249H14.2258V14.8779H18.6083C19.0113 14.8779 19.3387 14.5515 19.3387 14.1475V11.9562H17.8779V13.4171H15.2585L18.9106 9.76498H43.4425L43.4424 44.8249Z" fill="white"/>
<path d="M40.5226 14.1475H30.2968C29.8938 14.1475 29.5664 14.4739 29.5664 14.8779V26.5645C29.5664 26.9685 29.8938 27.2949 30.2968 27.2949H40.5226C40.9257 27.2949 41.253 26.9685 41.253 26.5645V14.8779C41.253 14.4739 40.9257 14.1475 40.5226 14.1475ZM39.7922 15.6083V23.4508C39.1968 22.7745 38.4511 22.2375 37.6104 21.8921C38.0539 21.3792 38.3314 20.7199 38.3314 19.9908C38.3314 18.3796 37.0209 17.0691 35.4097 17.0691C33.7985 17.0691 32.488 18.3796 32.488 19.9908C32.488 20.7199 32.7655 21.3792 33.209 21.8912C32.3684 22.2368 31.6226 22.7735 31.0272 23.4499V15.6083H39.7922ZM33.9489 19.9908C33.9489 19.185 34.604 18.5299 35.4097 18.5299C36.2155 18.5299 36.8706 19.185 36.8706 19.9908C36.8706 20.7965 36.2155 21.4516 35.4097 21.4516C34.604 21.4516 33.9489 20.7965 33.9489 19.9908ZM31.2823 25.8341C31.8871 24.1212 33.5342 22.9124 35.4097 22.9124C37.2853 22.9124 38.9327 24.1212 39.5372 25.8341H31.2823Z" fill="white"/>
<path d="M19.3357 23.643V25.8342C19.3357 26.2382 19.6631 26.5646 20.0661 26.5646H23.7182C24.1212 26.5646 24.4486 26.2382 24.4486 25.8342V23.643H26.6399C27.0429 23.643 27.3703 23.3166 27.3703 22.9125V19.2605C27.3703 18.8565 27.0429 18.5301 26.6399 18.5301H24.4486V16.3388C24.4486 15.9348 24.1212 15.6084 23.7182 15.6084H20.0661C19.6631 15.6084 19.3357 15.9348 19.3357 16.3388V18.5301H17.1445C16.7414 18.5301 16.4141 18.8565 16.4141 19.2605V22.9125C16.4141 23.3166 16.7414 23.643 17.1445 23.643H19.3357ZM17.8749 19.9909H20.0661C20.4692 19.9909 20.7966 19.6645 20.7966 19.2605V17.0692H22.9878V19.2605C22.9878 19.6645 23.3152 19.9909 23.7182 19.9909H25.9095V22.1821H23.7182C23.3152 22.1821 22.9878 22.5085 22.9878 22.9125V25.1038H20.7966V22.9125C20.7966 22.5085 20.4692 22.1821 20.0661 22.1821H17.8749V19.9909Z" fill="white"/>
<path d="M21.5273 29.4863H39.0573V30.9472H21.5273V29.4863Z" fill="white"/>
<path d="M18.6094 32.4082H39.061V33.869H18.6094V32.4082Z" fill="white"/>
<path d="M18.6094 35.3301H39.061V36.7909H18.6094V35.3301Z" fill="white"/>
<path d="M17.1484 41.1729H25.9134V42.6337H17.1484V41.1729Z" fill="white"/>
<path d="M31.7539 41.1729H40.5189V42.6337H31.7539V41.1729Z" fill="white"/>
<path d="M39.7891 11.2256H41.2499V12.6864H39.7891V11.2256Z" fill="white"/>
<path d="M36.8672 11.2256H38.328V12.6864H36.8672V11.2256Z" fill="white"/>
<path d="M33.9492 11.2256H35.41V12.6864H33.9492V11.2256Z" fill="white"/>
</svg>
