<svg width="24" height="24" viewBox="0 0 24 24" fill="none" xmlns="http://www.w3.org/2000/svg">
<path d="M13.1648 14.4903C12.8088 14.3855 12.4109 14.3436 12.013 14.3436C11.5942 14.3436 11.1754 14.4064 10.8192 14.5112L9.56262 4.24956C9.54173 4.14482 9.54173 4.04008 9.54173 3.91445C9.54173 2.55329 10.6517 1.44336 12.0128 1.44336C12.7248 1.44336 13.395 1.75743 13.8558 2.28097C14.3165 2.82542 14.5678 3.53757 14.4841 4.22851L13.1648 14.4903Z" fill="#389E0D"/>
<path d="M11.9922 16.3535C13.3534 16.3535 14.4844 17.4634 14.4844 18.8246C14.4844 20.2068 13.3744 21.3168 11.9922 21.3168C10.61 21.3168 9.50009 20.186 9.50009 18.8246C9.50009 17.4634 10.631 16.3535 11.9922 16.3535Z" fill="#389E0D"/>
</svg>
