<svg width="48" height="48" viewBox="0 0 48 48" fill="none" xmlns="http://www.w3.org/2000/svg">
<path d="M14.1301 3H0.600168C0.268692 3 0 3.23883 0 3.53347V45.1324C0 45.4271 0.268692 45.6659 0.600168 45.6659H14.1311C14.4626 45.6659 14.7313 45.4271 14.7313 45.1324L14.7309 3.53347C14.7309 3.23883 14.4622 3 14.1307 3H14.1301ZM13.5303 44.5989H1.19934V4.06664H13.5303V44.5989Z" fill="currentColor"/>
<path d="M7.36516 14.2654C9.34557 14.2654 10.9569 12.8332 10.9569 11.0728C10.9569 9.31213 9.34557 7.87988 7.36516 7.87988C5.38475 7.87988 3.77344 9.31213 3.77344 11.0728C3.77344 12.8332 5.38475 14.2654 7.36516 14.2654ZM7.36516 8.94633C8.68397 8.94633 9.757 9.90021 9.757 11.0724C9.757 12.2445 8.68429 13.1984 7.36516 13.1984C6.04635 13.1984 4.97332 12.2449 4.97332 11.0724C4.97332 9.90012 6.04646 8.94633 7.36516 8.94633Z" fill="currentColor"/>
<path d="M4.36188 21.1919H10.3702C10.7017 21.1919 10.9704 20.9531 10.9704 20.6585C10.9704 20.3638 10.7017 20.125 10.3702 20.125H4.36188C4.03041 20.125 3.76172 20.3638 3.76172 20.6585C3.76214 20.9531 4.03083 21.1919 4.36188 21.1919Z" fill="currentColor"/>
<path d="M4.36188 17.9312H10.3702C10.7017 17.9312 10.9704 17.6924 10.9704 17.3977C10.9704 17.1031 10.7017 16.8643 10.3702 16.8643H4.36188C4.03041 16.8643 3.76172 17.1031 3.76172 17.3977C3.76214 17.6924 4.03083 17.9312 4.36188 17.9312Z" fill="currentColor"/>
<path d="M30.7639 3H17.233C16.9015 3 16.6328 3.23883 16.6328 3.53347V45.1324C16.6328 45.4271 16.9015 45.6659 17.233 45.6659H30.7639C31.0954 45.6659 31.3641 45.4271 31.3641 45.1324V3.53347C31.3641 3.23883 31.0954 3 30.7639 3ZM30.1638 44.5989H17.8328V4.06664H30.1638V44.5989Z" fill="currentColor"/>
<path d="M24.0019 14.2654C25.9827 14.2654 27.594 12.8332 27.594 11.0728C27.594 9.31213 25.9827 7.87988 24.0019 7.87988C22.0215 7.87988 20.4102 9.31213 20.4102 11.0728C20.4102 12.8332 22.0215 14.2654 24.0019 14.2654ZM24.0019 8.94633C25.3207 8.94633 26.3937 9.90021 26.3937 11.0724C26.3937 12.2449 25.3206 13.1988 24.0019 13.1988C22.6832 13.1988 21.61 12.2453 21.61 11.0728C21.61 9.90021 22.6832 8.94633 24.0019 8.94633Z" fill="currentColor"/>
<path d="M20.9947 21.1919H27.0026C27.3341 21.1919 27.6027 20.9531 27.6027 20.6585C27.6027 20.3638 27.3341 20.125 27.0026 20.125H20.9947C20.6632 20.125 20.3945 20.3638 20.3945 20.6585C20.3945 20.9531 20.6632 21.1919 20.9947 21.1919Z" fill="currentColor"/>
<path d="M20.9947 17.9312H27.0026C27.3341 17.9312 27.6027 17.6924 27.6027 17.3977C27.6027 17.1031 27.3341 16.8643 27.0026 16.8643H20.9947C20.6632 16.8643 20.3945 17.1031 20.3945 17.3977C20.3945 17.6924 20.6632 17.9312 20.9947 17.9312Z" fill="currentColor"/>
<path d="M47.3996 3.00037H33.8697C33.5382 3.00037 33.2695 3.2392 33.2695 3.53384V45.1328C33.2695 45.4274 33.5382 45.6663 33.8697 45.6663L47.3996 45.6659C47.7311 45.6659 47.9998 45.4271 47.9998 45.1324V3.53347C47.9998 3.23883 47.7311 3 47.3996 3V3.00037ZM46.7998 44.5993H34.4689V4.06701H46.7998V44.5993Z" fill="currentColor"/>
<path d="M40.6347 14.2654C42.6151 14.2654 44.2264 12.8332 44.2264 11.0728C44.2264 9.31213 42.6151 7.87988 40.6347 7.87988C38.6543 7.87988 37.043 9.31213 37.043 11.0728C37.043 12.8332 38.6543 14.2654 40.6347 14.2654ZM40.6347 8.94633C41.9535 8.94633 43.0265 9.90021 43.0265 11.0724C43.0265 12.2445 41.9538 13.1984 40.6347 13.1984C39.3159 13.1984 38.2429 12.2449 38.2429 11.0724C38.2429 9.90012 39.316 8.94633 40.6347 8.94633Z" fill="currentColor"/>
<path d="M37.6314 21.1919H43.6393C43.9708 21.1919 44.2395 20.9531 44.2395 20.6585C44.2395 20.3638 43.9708 20.125 43.6393 20.125H37.6314C37.2999 20.125 37.0312 20.3638 37.0312 20.6585C37.0317 20.9531 37.2999 21.1919 37.6314 21.1919Z" fill="currentColor"/>
<path d="M37.6314 17.9312H43.6393C43.9708 17.9312 44.2395 17.6924 44.2395 17.3977C44.2395 17.1031 43.9708 16.8643 43.6393 16.8643H37.6314C37.2999 16.8643 37.0312 17.1031 37.0312 17.3977C37.0317 17.6924 37.2999 17.9312 37.6314 17.9312Z" fill="currentColor"/>
<path d="M36.8384 32.1183H38.4075V33.5658C38.4075 33.8604 38.6762 34.0992 39.0077 34.0992H42.4718C42.8033 34.0992 43.072 33.8604 43.072 33.5658V32.1183H44.7599C45.0914 32.1183 45.3601 31.8794 45.3601 31.5848V28.5056C45.3601 28.211 45.0914 27.9722 44.7599 27.9722H43.072V26.5247C43.072 26.23 42.8033 25.9912 42.4718 25.9912H39.0077C38.6762 25.9912 38.4075 26.23 38.4075 26.5247V27.9722H36.8384C36.507 27.9722 36.2383 28.211 36.2383 28.5056V31.5848C36.2387 31.8794 36.5074 32.1183 36.8384 32.1183ZM37.4386 29.0391H39.0077C39.3392 29.0391 39.6079 28.8003 39.6079 28.5056V27.0582H41.8721V28.5056C41.8721 28.8003 42.1408 29.0391 42.4723 29.0391H44.1602V31.0517H42.4723C42.1408 31.0517 41.8721 31.2906 41.8721 31.5852V33.0327H39.6079V31.5852C39.6079 31.2906 39.3392 31.0517 39.0077 31.0517H37.4386V29.0391Z" fill="currentColor"/>
<path d="M20.0416 32.1183H21.6107V33.5658C21.6107 33.8604 21.8794 34.0992 22.2108 34.0992H25.675C26.0064 34.0992 26.2751 33.8604 26.2751 33.5658V32.1183H27.963C28.2945 32.1183 28.5632 31.8794 28.5632 31.5848V28.5056C28.5632 28.211 28.2945 27.9722 27.963 27.9722H26.2751V26.5247C26.2751 26.23 26.0064 25.9912 25.675 25.9912H22.2108C21.8794 25.9912 21.6107 26.23 21.6107 26.5247V27.9722H20.0416C19.7101 27.9722 19.4414 28.211 19.4414 28.5056V31.5848C19.4418 31.8794 19.7105 32.1183 20.0416 32.1183ZM20.6417 29.0391H22.2108C22.5423 29.0391 22.811 28.8003 22.811 28.5056V27.0582H25.0752V28.5056C25.0752 28.8003 25.3439 29.0391 25.6754 29.0391H27.3633V31.0517H25.6754C25.3439 31.0517 25.0752 31.2906 25.0752 31.5852V33.0327H22.811V31.5852C22.811 31.2906 22.5423 31.0517 22.2108 31.0517H20.6417V29.0391Z" fill="currentColor"/>
<path d="M3.40485 32.1183H4.97395V33.5658C4.97395 33.8604 5.24264 34.0992 5.57412 34.0992H9.03823C9.36971 34.0992 9.6384 33.8604 9.6384 33.5658V32.1183H11.3263C11.6578 32.1183 11.9265 31.8794 11.9265 31.5848V28.5056C11.9265 28.211 11.6578 27.9722 11.3263 27.9722H9.6384V26.5247C9.6384 26.23 9.36971 25.9912 9.03823 25.9912H5.57412C5.24264 25.9912 4.97395 26.23 4.97395 26.5247V27.9722H3.40485C3.07338 27.9722 2.80469 28.211 2.80469 28.5056V31.5848C2.80511 31.8794 3.0738 32.1183 3.40485 32.1183ZM4.00502 29.0391H5.57412C5.90559 29.0391 6.17428 28.8003 6.17428 28.5056V27.0582H8.43851V28.5056C8.43851 28.8003 8.7072 29.0391 9.03868 29.0391H10.7266V31.0517H9.03868C8.7072 31.0517 8.43851 31.2906 8.43851 31.5852V33.0327H6.17428V31.5852C6.17428 31.2906 5.90559 31.0517 5.57412 31.0517H4.00502V29.0391Z" fill="currentColor"/>
</svg>
