<svg width="37" height="32" viewBox="0 0 37 32" fill="none" xmlns="http://www.w3.org/2000/svg">
<path d="M35.7894 15.109C34.3369 12.0489 32.6084 9.5532 30.6039 7.62196L28.5016 9.72426C30.2159 11.3626 31.7092 13.5058 33.0004 16.175C29.5627 23.2901 24.6829 26.67 18.014 26.67C16.0122 26.67 14.1685 26.3618 12.4826 25.7453L10.2047 28.0232C12.5461 29.1044 15.1492 29.645 18.014 29.645C25.9555 29.645 31.8807 25.5089 35.7894 17.2369C35.9466 16.9042 36.0281 16.5408 36.0281 16.1729C36.0281 15.805 35.9466 15.4416 35.7894 15.109ZM33.1628 1.86044L31.4014 0.0969463C31.3707 0.0662128 31.3342 0.0418318 31.2941 0.025197C31.2539 0.00856225 31.2109 0 31.1675 0C31.124 0 31.081 0.00856225 31.0409 0.025197C31.0008 0.0418318 30.9643 0.0662128 30.9336 0.0969463L26.4146 4.61393C23.923 3.34131 21.1228 2.705 18.014 2.705C10.0725 2.705 4.14737 6.84103 0.238597 15.1131C0.0814837 15.4458 0 15.8091 0 16.177C0 16.545 0.0814837 16.9083 0.238597 17.241C1.80018 20.53 3.68019 23.1663 5.87863 25.1499L1.50626 29.521C1.44432 29.583 1.40952 29.667 1.40952 29.7547C1.40952 29.8423 1.44432 29.9263 1.50626 29.9883L3.27017 31.7522C3.33215 31.8142 3.4162 31.849 3.50383 31.849C3.59146 31.849 3.6755 31.8142 3.73749 31.7522L33.1628 2.32817C33.1935 2.29747 33.2179 2.26101 33.2345 2.22089C33.2512 2.18076 33.2597 2.13774 33.2597 2.09431C33.2597 2.05087 33.2512 2.00785 33.2345 1.96772C33.2179 1.9276 33.1935 1.89114 33.1628 1.86044ZM3.02763 16.175C6.4695 9.05986 11.3493 5.67996 18.014 5.67996C20.2675 5.67996 22.3166 6.06671 24.1755 6.85301L21.2708 9.75773C19.8951 9.02376 18.32 8.75135 16.7778 8.98071C15.2355 9.21007 13.8078 9.92904 12.7053 11.0316C11.6028 12.1341 10.8838 13.5618 10.6545 15.104C10.4251 16.6463 10.6975 18.2214 11.4315 19.597L7.98466 23.0438C6.07696 21.3601 4.43247 19.0789 3.02763 16.175ZM13.221 16.175C13.2217 15.4464 13.3943 14.7282 13.7247 14.0789C14.0552 13.4295 14.5341 12.8672 15.1226 12.4377C15.7112 12.0082 16.3928 11.7236 17.112 11.607C17.8312 11.4904 18.5677 11.5451 19.2618 11.7667L13.4404 17.5881C13.2945 17.1313 13.2205 16.6545 13.221 16.175Z" fill="#707EAE"/>
<path d="M17.8443 20.804C17.7013 20.804 17.5604 20.7974 17.4207 20.7846L15.2383 22.967C16.5509 23.4698 17.9811 23.5815 19.3559 23.2887C20.7307 22.9959 21.9913 22.3112 22.9852 21.3172C23.9791 20.3233 24.6639 19.0627 24.9567 17.6879C25.2494 16.3131 25.1377 14.883 24.635 13.5703L22.4526 15.7528C22.4654 15.8924 22.472 16.0333 22.472 16.1763C22.4723 16.7841 22.3528 17.386 22.1204 17.9476C21.8879 18.5092 21.5471 19.0195 21.1173 19.4493C20.6875 19.8791 20.1772 20.22 19.6156 20.4524C19.054 20.6849 18.4521 20.8043 17.8443 20.804Z" fill="#707EAE"/>
</svg>
