<svg width="16" height="16" viewBox="0 0 16 16" fill="none" xmlns="http://www.w3.org/2000/svg">
<path d="M14.7899 7.89164L8.75241 1.85727L8.34772 1.45258C8.25551 1.36098 8.13082 1.30957 8.00085 1.30957C7.87087 1.30957 7.74618 1.36098 7.65397 1.45258L1.21178 7.89164C1.1173 7.98576 1.04263 8.09784 0.992177 8.22129C0.941725 8.34474 0.916515 8.47704 0.918034 8.61039C0.924284 9.16039 1.3821 9.59945 1.9321 9.59945H2.59616V14.6885H13.4055V9.59945H14.0837C14.3508 9.59945 14.6024 9.49477 14.7915 9.3057C14.8846 9.21291 14.9583 9.10257 15.0085 8.98107C15.0586 8.85957 15.0842 8.72933 15.0837 8.59789C15.0837 8.33227 14.979 8.0807 14.7899 7.89164ZM8.87585 13.5635H7.12585V10.376H8.87585V13.5635ZM12.2805 8.47445V13.5635H9.87584V10.001C9.87584 9.6557 9.59616 9.37602 9.25084 9.37602H6.75085C6.40553 9.37602 6.12585 9.6557 6.12585 10.001V13.5635H3.72116V8.47445H2.22116L8.00241 2.69789L8.36335 3.05883L13.7821 8.47445H12.2805Z" fill="#707EAE"/>
</svg>
