<svg width="22" height="22" viewBox="0 0 22 22" fill="none" xmlns="http://www.w3.org/2000/svg">
<path d="M11 1.375C5.68477 1.375 1.375 5.68477 1.375 11C1.375 16.3152 5.68477 20.625 11 20.625C16.3152 20.625 20.625 16.3152 20.625 11C20.625 5.68477 16.3152 1.375 11 1.375ZM14.8242 13.2988H13.8166C13.5975 13.2988 13.3891 13.1936 13.2602 13.0152L11 9.89141L8.73984 13.0152C8.61094 13.1936 8.40469 13.2988 8.1834 13.2988H7.17578C7.03613 13.2988 6.95449 13.1398 7.03613 13.026L10.8604 7.74082C10.9291 7.64629 11.0688 7.64629 11.1375 7.74082L14.9617 13.026C15.0455 13.1398 14.9639 13.2988 14.8242 13.2988Z" fill="#1F60AA"/>
</svg>
