<svg width="199" height="70" viewBox="0 0 199 70" fill="none" xmlns="http://www.w3.org/2000/svg">
<path fill-rule="evenodd" clip-rule="evenodd" d="M7.52129 10.0007C11.8888 11.8703 15.3051 15.5072 16.8965 19.981C17.5395 21.7887 17.7582 22.9779 17.8222 25.0147C17.8842 26.9862 17.7876 28.0919 17.4171 29.6518C15.9171 35.9678 10.9419 40.8935 4.59679 42.3446C3.39455 42.6196 1.17911 42.8616 0.418232 42.801C-0.920187 42.6946 1.22171 43.276 3.06974 43.5208C7.30754 44.082 11.8829 42.8495 15.3953 40.2004C15.8881 39.8288 16.3031 39.5384 16.3179 39.5552C16.3326 39.572 16.448 40.2379 16.5744 41.035C17.3346 45.8275 19.5098 50.0979 22.9365 53.5246C26.4339 57.022 30.766 59.19 35.7354 59.9296C37.2335 60.1526 37.3204 60.1275 36.3537 59.7508C32.6568 58.31 29.1937 55.7003 26.6803 52.4613C24.7059 49.9169 23.1464 46.5168 22.4757 43.2948C21.6381 39.271 21.8804 35.3978 23.2217 31.3739C24.3014 28.1344 26.096 25.2525 28.6069 22.7254C31.6486 19.6642 35.341 17.616 39.6306 16.6105C41.2272 16.2362 42.6325 16.079 44.471 16.0688C45.3265 16.064 45.9685 16.0277 45.8977 15.9879C45.5836 15.8118 43.2217 15.2716 42.015 15.0998C40.4341 14.8747 37.6517 14.8468 36.1866 15.0412C31.0121 15.7278 26.4528 17.9769 22.8045 21.6426C22.2344 22.2152 21.7512 22.6242 21.7308 22.5512C20.4931 18.1326 18.2381 14.8869 14.6928 12.4214C13.6403 11.6893 11.6162 10.7097 10.2883 10.2896C9.36403 9.99726 7.11796 9.53925 6.63653 9.54497C6.54031 9.54603 6.93844 9.7512 7.52129 10.0007ZM22.1442 13.0681C21.2852 13.4202 20.6854 14.0312 20.4134 14.8307C20.2409 15.3376 20.2612 16.2001 20.459 16.7808C20.6967 17.4786 21.5777 18.2701 22.3126 18.4465C23.8415 18.8132 25.3289 18.0134 25.7515 16.5972C25.9479 15.9384 25.9479 15.5459 25.7515 14.8872C25.5582 14.2395 25.0867 13.6567 24.4578 13.2881C23.8978 12.96 22.6883 12.8449 22.1442 13.0681ZM44.8762 16.7441C39.6803 17.5455 35.0293 19.8986 31.3649 23.5798C26.9957 27.9693 24.5006 33.6721 24.2461 39.8507C24.1532 42.1077 24.4767 44.8759 25.1009 47.1627L25.3467 48.0635L25.4243 46.8978C25.664 43.2935 26.473 40.2022 27.9479 37.2544C29.7783 33.5965 32.8053 30.1648 36.1866 27.9146C37.0445 27.3436 38.6738 26.3923 38.7937 26.3923C38.8342 26.3923 38.3574 26.8755 37.7342 27.4661C33.7425 31.2488 31.2461 35.971 30.3463 41.4403C30.0098 43.4852 30.0092 46.8336 30.3447 48.8053C30.5998 50.3042 30.8548 51.3741 31.2718 52.6941L31.5408 53.5454L31.9352 53.4823C32.5485 53.3843 34.3713 52.8407 35.3521 52.4634C41.4334 50.1242 46.4035 45.3472 48.9412 39.4024C51.3166 33.8377 51.5513 27.5079 49.5922 21.8355C49.1949 20.6851 47.8856 17.9241 47.3183 17.0403C47.0135 16.5654 46.9699 16.5375 46.5451 16.5466C46.2975 16.5519 45.5465 16.6408 44.8762 16.7441Z" fill="#EDF2F9"/>
<path d="M78.6074 30.85H83.3738V47.9109C83.1956 48 82.8986 48.0742 82.4829 48.1336C82.0671 48.2227 81.6365 48.2673 81.1911 48.2673C80.3002 48.2673 79.6468 48.1039 79.2311 47.7773C78.8153 47.4209 78.6074 46.8418 78.6074 46.04V30.85ZM83.3738 35.8836H78.6074V20.9609C78.8153 20.9015 79.1271 20.8421 79.5429 20.7827C79.9586 20.6936 80.3892 20.6491 80.8347 20.6491C81.7256 20.6491 82.3641 20.8124 82.7502 21.1391C83.1659 21.4658 83.3738 22.0448 83.3738 22.8764V35.8836ZM98.5377 24.8809L98.3595 20.9609H109.986C110.105 21.1391 110.223 21.4064 110.342 21.7627C110.461 22.0894 110.52 22.4458 110.52 22.8318C110.52 23.4851 110.357 23.99 110.03 24.3464C109.733 24.7027 109.303 24.8809 108.739 24.8809H98.5377ZM100.899 20.9609L101.032 24.8809H89.4059C89.2574 24.7027 89.1238 24.4503 89.005 24.1236C88.9159 23.7673 88.8713 23.3961 88.8713 23.01C88.8713 22.327 89.0198 21.8221 89.3168 21.4955C89.6435 21.1391 90.0741 20.9609 90.6086 20.9609H100.899ZM97.2459 23.6782H102.057V47.9109C101.849 48 101.537 48.0742 101.121 48.1336C100.706 48.2227 100.275 48.2673 99.8295 48.2673C98.9386 48.2673 98.2853 48.1039 97.8695 47.7773C97.4538 47.4209 97.2459 46.8418 97.2459 46.04V23.6782ZM125.551 38.69V23.0545C125.551 22.5497 125.685 22.1636 125.952 21.8964C126.249 21.5994 126.65 21.3767 127.155 21.2282C128.046 20.9312 129.13 20.7233 130.406 20.6045C131.713 20.4561 132.931 20.3818 134.059 20.3818C137.92 20.3818 140.771 21.1985 142.612 22.8318C144.483 24.4651 145.418 26.6776 145.418 29.4691C145.418 31.34 145.003 32.9733 144.171 34.3691C143.34 35.7352 142.107 36.8042 140.474 37.5764C138.84 38.3188 136.791 38.69 134.326 38.69H125.551ZM128.135 48.2673C127.244 48.2673 126.59 48.1039 126.175 47.7773C125.759 47.4209 125.551 46.8418 125.551 46.04V36.5073H130.362V47.9109C130.154 48 129.842 48.0742 129.426 48.1336C129.04 48.2227 128.61 48.2673 128.135 48.2673ZM130.317 34.8145H134.059C136.108 34.8145 137.697 34.3691 138.826 33.4782C139.984 32.5873 140.563 31.2509 140.563 29.4691C140.563 27.717 140.013 26.4251 138.915 25.5936C137.816 24.7324 136.227 24.3018 134.148 24.3018C133.465 24.3018 132.797 24.3315 132.144 24.3909C131.49 24.4503 130.882 24.5245 130.317 24.6136V34.8145ZM151.712 30.7609H156.434V47.6882C156.256 47.7179 155.959 47.7921 155.543 47.9109C155.157 48 154.741 48.0445 154.296 48.0445C153.524 48.0445 152.9 47.807 152.425 47.3318C151.95 46.8567 151.712 46.233 151.712 45.4609V30.7609ZM156.434 38.0218H151.712V23.5C151.712 22.7279 151.95 22.1191 152.425 21.6736C152.9 21.1985 153.524 20.9609 154.296 20.9609C154.741 20.9609 155.157 21.0055 155.543 21.0945C155.959 21.1836 156.256 21.2579 156.434 21.3173V38.0218ZM154.296 36.1064V32.2309H167.704C167.823 32.4091 167.941 32.6615 168.06 32.9882C168.179 33.3148 168.238 33.6712 168.238 34.0573C168.238 34.7106 168.075 35.2155 167.748 35.5718C167.451 35.9282 167.036 36.1064 166.501 36.1064H154.296ZM154.296 48.0445V44.1245H169.263C169.382 44.3027 169.501 44.57 169.619 44.9264C169.738 45.253 169.798 45.6094 169.798 45.9955C169.798 46.6488 169.634 47.1536 169.308 47.51C169.011 47.8664 168.595 48.0445 168.06 48.0445H154.296ZM154.296 24.8809V20.9609H169.04C169.189 21.1391 169.308 21.3915 169.397 21.7182C169.515 22.0448 169.575 22.4012 169.575 22.7873C169.575 23.4406 169.411 23.9603 169.085 24.3464C168.788 24.7027 168.372 24.8809 167.838 24.8809H154.296ZM176.307 38.69V23.0545C176.307 22.5497 176.441 22.1636 176.708 21.8964C177.005 21.5994 177.406 21.3767 177.911 21.2282C178.802 20.9312 179.886 20.7233 181.163 20.6045C182.469 20.4561 183.687 20.3818 184.815 20.3818C188.676 20.3818 191.527 21.1985 193.368 22.8318C195.239 24.4651 196.174 26.6776 196.174 29.4691C196.174 31.34 195.759 32.9733 194.927 34.3691C194.096 35.7352 192.863 36.8042 191.23 37.5764C189.596 38.3188 187.547 38.69 185.083 38.69H176.307ZM178.891 48.2673C178 48.2673 177.346 48.1039 176.931 47.7773C176.515 47.4209 176.307 46.8418 176.307 46.04V36.5073H181.118V47.9109C180.91 48 180.598 48.0742 180.183 48.1336C179.796 48.2227 179.366 48.2673 178.891 48.2673ZM181.073 34.8145H184.815C186.864 34.8145 188.453 34.3691 189.582 33.4782C190.74 32.5873 191.319 31.2509 191.319 29.4691C191.319 27.717 190.77 26.4251 189.671 25.5936C188.572 24.7324 186.983 24.3018 184.904 24.3018C184.221 24.3018 183.553 24.3315 182.9 24.3909C182.246 24.4503 181.638 24.5245 181.073 24.6136V34.8145Z" fill="#EDF2F9"/>
</svg>
