<svg width="153" height="48" viewBox="0 0 153 48" fill="none" xmlns="http://www.w3.org/2000/svg">
<rect width="48" height="48" rx="9.6" fill="#F8F8F8"/>
<path fill-rule="evenodd" clip-rule="evenodd" d="M12.7277 8.28646C15.473 9.46167 17.6204 11.7477 18.6206 14.5598C19.0248 15.6961 19.1623 16.4436 19.2026 17.7239C19.2415 18.9631 19.1808 19.6581 18.9479 20.6386C18.005 24.6087 14.8778 27.7048 10.8894 28.617C10.1337 28.7898 8.74115 28.9419 8.26289 28.9038C7.4216 28.837 8.76793 29.2024 9.92955 29.3563C12.5933 29.709 15.4692 28.9343 17.677 27.2692C17.9868 27.0356 18.2477 26.853 18.2569 26.8636C18.2662 26.8742 18.3387 27.2927 18.4182 27.7938C18.896 30.8062 20.2633 33.4905 22.4172 35.6444C24.6156 37.8427 27.3386 39.2054 30.4623 39.6704C31.4039 39.8105 31.4585 39.7948 30.8509 39.558C28.5271 38.6523 26.3503 37.012 24.7705 34.976C23.5294 33.3767 22.5491 31.2395 22.1276 29.2142C21.6011 26.685 21.7534 24.2504 22.5965 21.7211C23.2752 19.6848 24.4032 17.8733 25.9814 16.2849C27.8934 14.3607 30.2144 13.0732 32.9107 12.4412C33.9142 12.206 34.7976 12.1071 35.9532 12.1007C36.4909 12.0977 36.8945 12.0749 36.85 12.0499C36.6525 11.9392 35.1679 11.5996 34.4094 11.4916C33.4157 11.3501 31.6668 11.3326 30.7458 11.4548C27.4933 11.8864 24.6275 13.3001 22.3343 15.6042C21.9759 15.9642 21.6722 16.2213 21.6594 16.1754C20.8814 13.398 19.4639 11.3578 17.2355 9.80805C16.5739 9.3479 15.3016 8.73215 14.4669 8.46811C13.886 8.28433 12.4741 7.99644 12.1715 8.00003C12.1111 8.0007 12.3613 8.12966 12.7277 8.28646ZM21.9192 10.2146C21.3793 10.4359 21.0022 10.8199 20.8313 11.3225C20.7229 11.6411 20.7356 12.1832 20.86 12.5483C21.0094 12.9869 21.5631 13.4844 22.025 13.5953C22.9861 13.8258 23.9211 13.323 24.1866 12.4328C24.3101 12.0188 24.3101 11.7721 24.1866 11.358C24.0651 10.9509 23.7688 10.5845 23.3734 10.3529C23.0215 10.1466 22.2612 10.0743 21.9192 10.2146ZM36.2079 12.5252C32.9419 13.0289 30.0184 14.508 27.7151 16.8219C24.9687 19.581 23.4004 23.1657 23.2404 27.0493C23.182 28.468 23.3854 30.208 23.7777 31.6455L23.9322 32.2117L23.981 31.479C24.1317 29.2134 24.6402 27.2703 25.5673 25.4174C26.7178 23.1181 28.6205 20.9611 30.7458 19.5467C31.2851 19.1878 32.3093 18.5898 32.3846 18.5898C32.41 18.5898 32.1104 18.8935 31.7186 19.2648C29.2096 21.6424 27.6404 24.6107 27.0748 28.0485C26.8633 29.3339 26.8629 31.4386 27.0738 32.6779C27.2341 33.6201 27.3945 34.2926 27.6566 35.1224L27.8256 35.6574L28.0736 35.6178C28.459 35.5562 29.6048 35.2145 30.2214 34.9773C34.0439 33.507 37.1679 30.5043 38.763 26.7676C40.2562 23.2697 40.4037 19.291 39.1722 15.7255C38.9225 15.0024 38.0995 13.2669 37.743 12.7114C37.5513 12.4129 37.5239 12.3953 37.2569 12.4011C37.1013 12.4044 36.6292 12.4603 36.2079 12.5252Z" fill="#1F60AA"/>
<path d="M77.324 21.22H80.32V31.944C80.208 32 80.0213 32.0467 79.76 32.084C79.4987 32.14 79.228 32.168 78.948 32.168C78.388 32.168 77.9773 32.0653 77.716 31.86C77.4547 31.636 77.324 31.272 77.324 30.768V21.22ZM80.32 24.384H77.324V15.004C77.4547 14.9667 77.6507 14.9293 77.912 14.892C78.1733 14.836 78.444 14.808 78.724 14.808C79.284 14.808 79.6853 14.9107 79.928 15.116C80.1893 15.3213 80.32 15.6853 80.32 16.208V24.384ZM89.8516 17.468L89.7396 15.004H97.0476C97.1223 15.116 97.1969 15.284 97.2716 15.508C97.3463 15.7133 97.3836 15.9373 97.3836 16.18C97.3836 16.5907 97.2809 16.908 97.0756 17.132C96.8889 17.356 96.6183 17.468 96.2636 17.468H89.8516ZM91.3356 15.004L91.4196 17.468H84.1116C84.0183 17.356 83.9343 17.1973 83.8596 16.992C83.8036 16.768 83.7756 16.5347 83.7756 16.292C83.7756 15.8627 83.8689 15.5453 84.0556 15.34C84.2609 15.116 84.5316 15.004 84.8676 15.004H91.3356ZM89.0396 16.712H92.0636V31.944C91.9329 32 91.7369 32.0467 91.4756 32.084C91.2143 32.14 90.9436 32.168 90.6636 32.168C90.1036 32.168 89.6929 32.0653 89.4316 31.86C89.1703 31.636 89.0396 31.272 89.0396 30.768V16.712ZM106.831 26.148V16.32C106.831 16.0027 106.915 15.76 107.083 15.592C107.27 15.4053 107.522 15.2653 107.839 15.172C108.399 14.9853 109.081 14.8547 109.883 14.78C110.705 14.6867 111.47 14.64 112.179 14.64C114.606 14.64 116.398 15.1533 117.555 16.18C118.731 17.2067 119.319 18.5973 119.319 20.352C119.319 21.528 119.058 22.5547 118.535 23.432C118.013 24.2907 117.238 24.9627 116.211 25.448C115.185 25.9147 113.897 26.148 112.347 26.148H106.831ZM108.455 32.168C107.895 32.168 107.485 32.0653 107.223 31.86C106.962 31.636 106.831 31.272 106.831 30.768V24.776H109.855V31.944C109.725 32 109.529 32.0467 109.267 32.084C109.025 32.14 108.754 32.168 108.455 32.168ZM109.827 23.712H112.179C113.467 23.712 114.466 23.432 115.175 22.872C115.903 22.312 116.267 21.472 116.267 20.352C116.267 19.2507 115.922 18.4387 115.231 17.916C114.541 17.3747 113.542 17.104 112.235 17.104C111.806 17.104 111.386 17.1227 110.975 17.16C110.565 17.1973 110.182 17.244 109.827 17.3V23.712ZM123.275 21.164H126.244V31.804C126.132 31.8227 125.945 31.8693 125.684 31.944C125.441 32 125.179 32.028 124.899 32.028C124.414 32.028 124.022 31.8787 123.723 31.58C123.425 31.2813 123.275 30.8893 123.275 30.404V21.164ZM126.244 25.728H123.275V16.6C123.275 16.1147 123.425 15.732 123.723 15.452C124.022 15.1533 124.414 15.004 124.899 15.004C125.179 15.004 125.441 15.032 125.684 15.088C125.945 15.144 126.132 15.1907 126.244 15.228V25.728ZM124.899 24.524V22.088H133.328C133.402 22.2 133.477 22.3587 133.552 22.564C133.626 22.7693 133.664 22.9933 133.664 23.236C133.664 23.6467 133.561 23.964 133.356 24.188C133.169 24.412 132.908 24.524 132.572 24.524H124.899ZM124.899 32.028V29.564H134.308C134.382 29.676 134.457 29.844 134.532 30.068C134.606 30.2733 134.644 30.4973 134.644 30.74C134.644 31.1507 134.541 31.468 134.336 31.692C134.149 31.916 133.888 32.028 133.552 32.028H124.899ZM124.899 17.468V15.004H134.168C134.261 15.116 134.336 15.2747 134.392 15.48C134.466 15.6853 134.504 15.9093 134.504 16.152C134.504 16.5627 134.401 16.8893 134.196 17.132C134.009 17.356 133.748 17.468 133.412 17.468H124.899ZM138.735 26.148V16.32C138.735 16.0027 138.819 15.76 138.987 15.592C139.174 15.4053 139.426 15.2653 139.743 15.172C140.303 14.9853 140.985 14.8547 141.787 14.78C142.609 14.6867 143.374 14.64 144.083 14.64C146.51 14.64 148.302 15.1533 149.459 16.18C150.635 17.2067 151.223 18.5973 151.223 20.352C151.223 21.528 150.962 22.5547 150.439 23.432C149.917 24.2907 149.142 24.9627 148.115 25.448C147.089 25.9147 145.801 26.148 144.251 26.148H138.735ZM140.359 32.168C139.799 32.168 139.389 32.0653 139.127 31.86C138.866 31.636 138.735 31.272 138.735 30.768V24.776H141.759V31.944C141.629 32 141.433 32.0467 141.171 32.084C140.929 32.14 140.658 32.168 140.359 32.168ZM141.731 23.712H144.083C145.371 23.712 146.37 23.432 147.079 22.872C147.807 22.312 148.171 21.472 148.171 20.352C148.171 19.2507 147.826 18.4387 147.135 17.916C146.445 17.3747 145.446 17.104 144.139 17.104C143.71 17.104 143.29 17.1227 142.879 17.16C142.469 17.1973 142.086 17.244 141.731 17.3V23.712Z" fill="white"/>
</svg>
