<svg width="48" height="48" viewBox="0 0 48 48" fill="none" xmlns="http://www.w3.org/2000/svg">
<path d="M37.1617 7.99926H33.6158C33.5266 7.24394 33.2651 6.58548 32.7934 6.05152C32.0032 5.15616 30.8813 4.82093 30.053 4.69324C29.0597 2.44113 26.9918 1 24.6419 1C22.2919 1 20.2241 2.44123 19.2312 4.69482C18.4012 4.82289 17.2794 5.15966 16.4887 6.0531C16.0166 6.58698 15.7572 7.24546 15.6663 8.00084L12.122 8.00123C9.84951 8.00123 8 9.68974 8 11.7616V43.8412C8 45.9135 9.84951 47.6 12.122 47.6H37.1637C39.4362 47.6 41.2857 45.9135 41.2857 43.8412V11.7606C41.2857 9.68836 39.4362 7.99984 37.162 7.99984L37.1617 7.99926ZM24.6414 2.50374C26.0819 2.50374 27.3857 3.31076 28.1932 4.61582H21.09C21.8972 3.30889 23.2009 2.50374 24.6414 2.50374ZM17.7712 6.99512C18.5086 6.16033 19.8957 6.11713 20.1669 6.11713H29.1141C29.3853 6.11713 30.7724 6.15879 31.5097 6.99512C32.0326 7.58803 32.1523 8.49886 31.866 9.7016C31.6045 10.7922 30.9014 12.6187 29.1086 12.6187H20.1745C18.3816 12.6187 17.6765 10.7902 17.4171 9.7016C17.1286 8.49876 17.2483 7.58804 17.7712 6.99512H17.7712ZM39.6365 43.8386C39.6365 45.0831 38.5278 46.0938 37.1634 46.0938L12.1218 46.0942C10.757 46.0942 9.64868 45.0831 9.64868 43.839V11.7594C9.64868 10.5149 10.7574 9.5024 12.1218 9.5024H15.7282C15.7565 9.67676 15.7641 9.83956 15.8077 10.0224C16.4292 12.6286 18.0214 14.1219 20.176 14.1219H29.1101C31.263 14.1219 32.857 12.6286 33.4784 10.0224C33.522 9.8411 33.5296 9.67676 33.558 9.5024H37.1644C38.5291 9.5024 39.6375 10.515 39.6375 11.7594L39.6383 43.838L39.6365 43.8386Z" fill="currentColor"/>
<path d="M13.625 30.1875H35.6582V31.6912H13.625V30.1875Z" fill="currentColor"/>
<path d="M13.625 35.374H35.6582V36.8778H13.625V35.374Z" fill="currentColor"/>
<path d="M13.625 40.5605H35.6582V42.0643H13.625V40.5605Z" fill="currentColor"/>
<path d="M30.1947 16.1177C30.064 15.8361 29.7949 15.6683 29.4214 15.6579C29.0859 15.6629 28.7864 15.8531 28.665 16.1381L26.0858 22.2351L24.2227 22.2355C23.8665 22.2355 23.5501 22.4446 23.438 22.7555L22.7937 24.5666L20.2314 16.2056C20.1328 15.8858 19.8164 15.6629 19.4504 15.6579C19.0545 15.6112 18.7588 15.8669 18.6505 16.1848L16.564 22.237L12.9141 22.2374V23.7392H17.1728C17.5328 23.7392 17.8513 23.5266 17.9592 23.2138L19.392 19.0521L21.9429 27.3718C22.0415 27.6916 22.3579 27.9127 22.72 27.9196H22.737C23.0932 27.9196 23.4096 27.7105 23.5217 27.3996L24.8238 23.7376H26.6546C26.9956 23.7376 27.301 23.5474 27.4241 23.2588L29.4708 18.4183L31.7166 23.2797C31.8457 23.5578 32.1447 23.7395 32.4764 23.7395H36.3671V22.2377H33.0238L30.1947 16.1177Z" fill="currentColor"/>
</svg>
