<svg width="48" height="48" viewBox="0 0 48 48" fill="none" xmlns="http://www.w3.org/2000/svg">
<path d="M23.999 14.8817C26.3792 14.8817 28.3106 12.3044 28.3106 9.86802C28.3106 7.43277 26.3796 5.45905 23.999 5.45905C21.6181 5.45905 19.6885 7.43277 19.6885 9.86802C19.6885 12.3036 21.6181 14.8817 23.999 14.8817ZM28.1903 16.1291H19.8077C17.403 16.1291 14.8432 18.2676 14.8432 20.6228H33.1541C33.1548 18.2677 30.5961 16.1291 28.1907 16.1291H28.1903ZM34.8592 1H13.1388C10.3053 1 8 3.3583 8 6.25653V41.7435C8 44.6417 10.3053 47 13.1388 47H34.8601C37.6939 47 40 44.6417 40 41.7435L39.9997 6.25653C39.9993 3.35866 37.6933 1 34.8594 1H34.8592ZM30.566 35.8653H26.1869V40.3448H21.8119V35.8653H17.4317V31.3908H21.8119V26.9113H26.1869V31.3908H30.566V35.8653ZM38.0115 21.827H9.9867V6.25598C9.9867 4.47828 11.4007 3.03206 13.138 3.03206H34.8593C36.5973 3.03206 38.0116 4.47837 38.0116 6.25598L38.012 21.827H38.0115Z" fill="currentColor"/>
</svg>
