<svg width="73" height="73" viewBox="0 0 73 73" fill="none" xmlns="http://www.w3.org/2000/svg">
<path d="M36.185 47.245C34.2954 47.245 33.0352 45.9854 33.0352 44.0951V28.3471C33.0352 26.4575 34.2947 25.1973 36.185 25.1973C38.0746 25.1973 39.3349 26.4568 39.3349 28.3471V44.0951C39.3349 45.9854 38.0747 47.245 36.185 47.245Z" fill="#143D69"/>
<path d="M39.3349 53.5437C39.3349 55.2837 37.9244 56.6936 36.185 56.6936C34.4456 56.6936 33.0352 55.2838 33.0352 53.5437C33.0352 51.8043 34.4456 50.3945 36.185 50.3945C37.9244 50.3945 39.3349 51.8044 39.3349 53.5437Z" fill="#143D69"/>
<path d="M36.1848 6.29956C37.1299 6.29956 38.0744 6.92967 38.3894 7.87416L65.7913 62.6779C66.7364 64.2525 65.4762 66.4571 63.5866 66.4571L8.78289 66.4578C6.89328 66.4578 5.63303 64.5682 6.57825 62.6786L33.9801 7.87482C34.2952 6.92965 35.2397 6.29956 36.1848 6.29956M36.1848 0.000506558C32.7199 0.000506558 29.8857 1.89012 28.3104 5.03999L0.908565 59.5282C-0.350976 62.3631 -0.350978 65.5123 1.22362 68.0319C2.79821 70.8668 5.63306 72.4413 8.78293 72.4413H63.5867C66.7365 72.4413 69.5707 70.8668 71.146 68.3469C72.7206 65.8271 73.0356 62.3629 71.461 59.8432L44.0592 5.03948C42.4839 1.88962 39.6497 0 36.1848 0L36.1848 0.000506558Z" fill="#143D69"/>
</svg>
