<svg width="24" height="24" viewBox="0 0 24 24" fill="none" xmlns="http://www.w3.org/2000/svg">
<path d="M16.5382 2.92734C16.5095 2.91289 16.4776 2.90604 16.4455 2.90747C16.4134 2.90889 16.3822 2.91854 16.3549 2.93548C16.3276 2.95242 16.3052 2.97608 16.2896 3.00421C16.2741 3.03233 16.2661 3.06397 16.2663 3.09609V4.60078C16.2663 4.72969 16.3343 4.84922 16.4421 4.91953C16.9706 5.2522 17.4597 5.64376 17.8999 6.08672C18.6663 6.85547 19.2687 7.74844 19.6882 8.74219C20.1221 9.77093 20.3445 10.8765 20.3421 11.993C20.3421 13.1203 20.1218 14.2148 19.6882 15.2438C19.2691 16.2361 18.6619 17.1378 17.8999 17.8992C17.1405 18.6631 16.2393 19.2713 15.2468 19.6898C14.2202 20.1258 13.1257 20.3461 12.0007 20.3461C10.8757 20.3461 9.78117 20.1258 8.7546 19.6898C7.76212 19.2713 6.86088 18.6631 6.10148 17.8992C5.33953 17.1378 4.73225 16.2361 4.3132 15.2438C3.87933 14.215 3.65694 13.1095 3.65929 11.993C3.65929 10.8656 3.8796 9.77109 4.3132 8.74219C4.73273 7.74844 5.33507 6.85547 6.10148 6.08672C6.54679 5.64141 7.03429 5.25234 7.55929 4.91953C7.66945 4.85156 7.73507 4.72969 7.73507 4.60078V3.09375C7.73507 2.95312 7.58742 2.86406 7.4632 2.925C4.18429 4.575 1.92257 7.95234 1.8757 11.8664C1.81007 17.4633 6.38742 22.1133 11.9819 22.125C17.5835 22.1367 22.1257 17.5945 22.1257 11.9906C22.1257 8.025 19.8523 4.59141 16.5382 2.92734ZM11.2507 13.125H12.7507C12.8538 13.125 12.9382 13.0406 12.9382 12.9375V2.0625C12.9382 1.95937 12.8538 1.875 12.7507 1.875H11.2507C11.1476 1.875 11.0632 1.95937 11.0632 2.0625V12.9375C11.0632 13.0406 11.1476 13.125 11.2507 13.125Z" fill="#3B4360"/>
</svg>
