<svg width="16" height="16" viewBox="0 0 16 16" fill="none" xmlns="http://www.w3.org/2000/svg">
<path d="M11.4276 10.0629H10.7669L10.5327 9.81589C11.3523 8.77301 11.8458 7.4191 11.8458 5.94625C11.8458 2.66209 9.41191 0 6.40924 0C3.40657 0 0.972656 2.66209 0.972656 5.94625C0.972656 9.23042 3.40657 11.8925 6.40924 11.8925C7.75584 11.8925 8.99371 11.3528 9.9472 10.4563L10.173 10.7124V11.4351L14.355 16L15.6012 14.6369L11.4276 10.0629ZM6.40924 10.0629C4.32661 10.0629 2.64545 8.22413 2.64545 5.94625C2.64545 3.66838 4.32661 1.82962 6.40924 1.82962C8.49187 1.82962 10.173 3.66838 10.173 5.94625C10.173 8.22413 8.49187 10.0629 6.40924 10.0629Z" fill="#143D69"/>
</svg>
