<svg width="21" height="21" viewBox="0 0 21 21" fill="none" xmlns="http://www.w3.org/2000/svg">
<path d="M18.6242 7.24054L13.4172 6.4838L11.0896 1.76495C11.026 1.63575 10.9214 1.53116 10.7922 1.46759C10.4682 1.30762 10.0745 1.44093 9.91245 1.76495L7.58481 6.4838L2.37788 7.24054C2.23432 7.26104 2.10307 7.32872 2.00259 7.43126C1.8811 7.55612 1.81416 7.72411 1.81646 7.89831C1.81877 8.0725 1.89014 8.23866 2.01489 8.36026L5.78217 12.0332L4.89214 17.2196C4.87126 17.3403 4.88461 17.4644 4.93067 17.5778C4.97673 17.6913 5.05366 17.7895 5.15273 17.8615C5.25179 17.9334 5.36904 17.9762 5.49117 17.9849C5.6133 17.9936 5.73542 17.9679 5.8437 17.9108L10.501 15.4621L15.1583 17.9108C15.2855 17.9784 15.4332 18.001 15.5747 17.9764C15.9315 17.9149 16.1714 17.5765 16.1099 17.2196L15.2199 12.0332L18.9872 8.36026C19.0897 8.25977 19.1574 8.12852 19.1779 7.98497C19.2332 7.62608 18.9831 7.29386 18.6242 7.24054ZM13.6346 11.5164L14.3749 15.8292L10.501 13.7948L6.6271 15.8313L7.36743 11.5185L4.23383 8.4628L8.56508 7.83321L10.501 3.91007L12.437 7.83321L16.7682 8.4628L13.6346 11.5164Z" fill="#FADB14"/>
</svg>
