<svg width="22" height="22" viewBox="0 0 22 22" fill="none" xmlns="http://www.w3.org/2000/svg">
<path d="M19.5105 7.58507L14.0556 6.79229L11.6171 1.84874C11.5505 1.71339 11.4409 1.60382 11.3056 1.53721C10.9661 1.36964 10.5536 1.50929 10.3839 1.84874L7.94543 6.79229L2.49055 7.58507C2.34016 7.60655 2.20266 7.67745 2.09739 7.78487C1.97012 7.91568 1.89999 8.09167 1.9024 8.27416C1.90482 8.45665 1.97959 8.63072 2.11028 8.75811L6.05696 12.606L5.12454 18.0394C5.10267 18.1658 5.11666 18.2957 5.16491 18.4146C5.21316 18.5334 5.29375 18.6364 5.39754 18.7118C5.50132 18.7871 5.62415 18.8319 5.75209 18.8411C5.88004 18.8502 6.00798 18.8233 6.12141 18.7634L11.0005 16.1982L15.8796 18.7634C16.0128 18.8343 16.1675 18.8579 16.3157 18.8321C16.6896 18.7677 16.9409 18.4132 16.8765 18.0394L15.9441 12.606L19.8907 8.75811C19.9982 8.65284 20.0691 8.51534 20.0906 8.36495C20.1486 7.98897 19.8864 7.64093 19.5105 7.58507Z" fill="#FADB14"/>
</svg>
