<svg width="48" height="48" viewBox="0 0 48 48" fill="none" xmlns="http://www.w3.org/2000/svg">
<path d="M38.6898 16.9247C36.6428 16.7389 34.6505 17.651 33.4563 19.321C32.2621 20.9906 32.0451 23.167 32.886 25.0387C33.7273 26.9105 35.5002 28.1968 37.544 28.4173V35.5646C37.544 38.8331 35.7967 41.8531 32.9603 43.4876C30.1239 45.1216 26.6293 45.1216 23.7929 43.4876C20.9564 41.8531 19.2091 38.8331 19.2091 35.5646V25.3869C22.5024 25.1145 25.5729 23.6173 27.8118 21.1923C30.0511 18.767 31.2957 15.591 31.2984 12.293V2.97334H25.9702V0H23.6786V8.2337H25.9702V5.26035H29.0639V12.2931C28.7957 15.9776 26.6696 19.2736 23.4199 21.0424C20.1707 22.8117 16.2429 22.8117 12.9932 21.0424C9.74355 19.2736 7.61738 15.9776 7.34922 12.2931V5.26035H10.443V8.2337H12.7346L12.735 0H10.4434V2.97334H5V12.293C4.9992 15.5639 6.21978 18.7171 8.42309 21.1385C10.6268 23.5595 13.6551 25.0743 16.9174 25.3869V35.5646C16.9174 39.6499 19.1016 43.4253 22.6469 45.4681C26.1923 47.5106 30.5606 47.5106 34.106 45.4681C37.6513 43.4253 39.8355 39.6499 39.8355 35.5646V28.4173C41.8794 28.1968 43.6523 26.9105 44.4935 25.0387C45.3344 23.167 45.1174 20.9906 43.9232 19.321C42.729 17.6511 40.7367 16.7389 38.6897 16.9247H38.6898ZM38.6898 26.2448V26.2444C37.763 26.2444 36.8738 25.8771 36.2184 25.2229C35.563 24.5688 35.1948 23.6818 35.1948 22.7565C35.1948 21.8316 35.5629 20.9446 36.2184 20.2906C36.8738 19.6365 37.7631 19.2687 38.6898 19.2687C39.6167 19.2687 40.5059 19.6364 41.1613 20.2906C41.8164 20.9446 42.1849 21.8317 42.1849 22.7565C42.1849 23.6819 41.8164 24.5689 41.1613 25.2229C40.5059 25.877 39.6166 26.2444 38.6898 26.2444V26.2448Z" fill="currentColor"/>
</svg>
