<svg width="48" height="48" viewBox="0 0 48 48" fill="none" xmlns="http://www.w3.org/2000/svg">
<path d="M9 46.7439H39V38.993H36.3114V26.4847C36.3114 22.0864 33.9649 18.0221 30.1557 15.8231C26.3466 13.6242 21.6536 13.624 17.8444 15.8231C14.0353 18.0223 11.6888 22.0867 11.6888 26.4847V38.993H9.00018L9 46.7439ZM13.6583 26.4848C13.6583 22.79 15.6294 19.3763 18.8292 17.5292C22.029 15.6818 25.971 15.6818 29.1707 17.5292C32.3705 19.3766 34.3415 22.7904 34.3415 26.4848V38.9931H13.6585L13.6583 26.4848ZM10.9697 40.9629H37.0301V44.7696H10.9697V40.9629Z" fill="currentColor"/>
<path d="M23.0156 2H24.9853V9.21952H23.0156V2Z" fill="currentColor"/>
<path d="M32.0859 11.7737L37.4975 6.69531L38.8455 8.13187L33.4338 13.2103L32.0859 11.7737Z" fill="currentColor"/>
<path d="M9.15234 8.13284L10.4999 6.69629L15.9126 11.7736L14.565 13.2102L9.15234 8.13284Z" fill="currentColor"/>
</svg>
