<svg width="25" height="25" viewBox="0 0 25 25" fill="none" xmlns="http://www.w3.org/2000/svg">
<path d="M21.0074 18.4426C20.5618 17.3871 19.9152 16.4285 19.1035 15.6199C18.2944 14.809 17.3358 14.1625 16.2809 13.7161C16.2714 13.7114 16.262 13.709 16.2525 13.7043C17.7241 12.6414 18.6807 10.91 18.6807 8.95654C18.6807 5.72052 16.0588 3.09863 12.8228 3.09863C9.58679 3.09863 6.9649 5.72052 6.9649 8.95654C6.9649 10.91 7.92154 12.6414 9.3931 13.7066C9.38365 13.7114 9.37421 13.7137 9.36476 13.7185C8.30655 14.1649 7.35701 14.805 6.54209 15.6223C5.73122 16.4314 5.08471 17.39 4.63827 18.4449C4.19969 19.4778 3.96315 20.5851 3.94147 21.7069C3.94083 21.7322 3.94526 21.7572 3.95447 21.7807C3.96368 21.8042 3.9775 21.8256 3.99511 21.8436C4.01272 21.8617 4.03377 21.876 4.05701 21.8858C4.08025 21.8956 4.10521 21.9006 4.13043 21.9006H5.54767C5.6516 21.9006 5.73427 21.818 5.73663 21.7164C5.78387 19.8929 6.51611 18.1851 7.81052 16.8907C9.14981 15.5514 10.9284 14.8145 12.8228 14.8145C14.7172 14.8145 16.4958 15.5514 17.8351 16.8907C19.1295 18.1851 19.8618 19.8929 19.909 21.7164C19.9114 21.8203 19.994 21.9006 20.098 21.9006H21.5152C21.5404 21.9006 21.5654 21.8956 21.5886 21.8858C21.6119 21.876 21.6329 21.8617 21.6505 21.8436C21.6681 21.8256 21.6819 21.8042 21.6912 21.7807C21.7004 21.7572 21.7048 21.7322 21.7042 21.7069C21.6805 20.5779 21.4467 19.4795 21.0074 18.4426V18.4426ZM12.8228 13.0193C11.7386 13.0193 10.7182 12.5965 9.95055 11.8288C9.18288 11.0611 8.76007 10.0407 8.76007 8.95654C8.76007 7.87236 9.18288 6.85195 9.95055 6.08428C10.7182 5.31661 11.7386 4.8938 12.8228 4.8938C13.907 4.8938 14.9274 5.31661 15.6951 6.08428C16.4627 6.85195 16.8856 7.87236 16.8856 8.95654C16.8856 10.0407 16.4627 11.0611 15.6951 11.8288C14.9274 12.5965 13.907 13.0193 12.8228 13.0193Z" fill="#EDF2F9"/>
</svg>
